<mxfile host="app.diagrams.net" modified="2022-05-16T11:20:32.801Z" agent="5.0 (Windows)" etag="-k_YOSIqGh1hbnbBvaF_" version="18.0.5" type="github">
  <diagram id="C5zasnME51S-IDCfTByM" name="Page-1">
    <mxGraphModel dx="672" dy="434" grid="1" gridSize="10" guides="1" tooltips="1" connect="1" arrows="1" fold="1" page="1" pageScale="1" pageWidth="850" pageHeight="1100" math="0" shadow="0">
      <root>
        <mxCell id="0" />
        <mxCell id="1" parent="0" />
        <mxCell id="L-vNtE5xYx921B3aTLXP-1" value="High Level Diagram" style="text;html=1;strokeColor=none;fillColor=none;align=center;verticalAlign=middle;whiteSpace=wrap;rounded=0;" vertex="1" parent="1">
          <mxGeometry x="340" y="30" width="160" height="30" as="geometry" />
        </mxCell>
        <mxCell id="L-vNtE5xYx921B3aTLXP-6" value="" style="edgeStyle=orthogonalEdgeStyle;rounded=0;orthogonalLoop=1;jettySize=auto;html=1;" edge="1" parent="1" source="L-vNtE5xYx921B3aTLXP-2" target="L-vNtE5xYx921B3aTLXP-4">
          <mxGeometry relative="1" as="geometry" />
        </mxCell>
        <mxCell id="L-vNtE5xYx921B3aTLXP-2" value="Actor" style="shape=umlActor;verticalLabelPosition=bottom;verticalAlign=top;html=1;outlineConnect=0;" vertex="1" parent="1">
          <mxGeometry x="20" y="155" width="30" height="60" as="geometry" />
        </mxCell>
        <mxCell id="L-vNtE5xYx921B3aTLXP-3" value="" style="rounded=0;whiteSpace=wrap;html=1;" vertex="1" parent="1">
          <mxGeometry x="160" y="80" width="60" height="210" as="geometry" />
        </mxCell>
        <mxCell id="L-vNtE5xYx921B3aTLXP-4" value="API GATEWAY" style="text;html=1;strokeColor=none;fillColor=none;align=center;verticalAlign=middle;whiteSpace=wrap;rounded=0;" vertex="1" parent="1">
          <mxGeometry x="160" y="105" width="60" height="160" as="geometry" />
        </mxCell>
      </root>
    </mxGraphModel>
  </diagram>
</mxfile>
